<svg xmlns="http://www.w3.org/2000/svg" viewBox="0 0 1537.58 834.96"><defs><style>.cls-1{fill:#fcf7f0;}</style></defs><title>homepage</title><g id="content"><path class="cls-1" d="M212.26,288.44c-7.2,13.9-17.63,23.28-28.37,27.62L238.32,401,159,415.34l-41-72.68-47.64,8.61.34,80L1,443.9,0,207.11l146.11-26.4c30.79-5.57,50.87-.2,62.56,13.59,9.05,10.36,13.48,25.46,13.57,47.64C222.32,261.12,218.32,276.84,212.26,288.44Zm-61.52-42.88c-3.51-6.86-10.49-8-20.66-6.16L70.53,250.16l.21,48.25,61-11c8.71-1.57,16.25-5,18.84-11.21a48.21,48.21,0,0,0,2.55-15.75C153.11,255,152.5,248.84,150.74,245.56Z"/><path class="cls-1" d="M256.63,397.7l-1-236.78,196.07-35.44.24,55.75L325.28,204.12l.15,34.47,122-22.05.24,56.35-122,22.05.15,35.06,128.1-23.15.23,55.15Z"/><path class="cls-1" d="M703.75,266.5c-15.82,38-48,62.37-109.86,73.55-42.7,7.72-73.82,3.74-93.95-13-19.25-16.31-28.68-44.91-28.86-86.87-.16-37.76,8.43-68.41,25.78-91.64,20.23-26.46,51.84-43.87,97.45-52.11,70.29-12.7,101.2,8.71,111.5,40.14,4.42,13,5.94,29.22,6,38.51l-71.74,13c0-7.79-2.11-17-6.21-23.48-6.73-10.78-17.5-14.83-40.16-10.74-19.17,3.47-31.35,11.07-39.14,23.88-7.22,11.5-9.77,28.46-9.67,50,.1,24.87,3.65,39.53,11.25,48.06,8.76,10.11,22.72,11.49,38.7,8.6,20.91-3.78,32.21-12.42,38.27-22.21,5.49-8.49,7.2-16.9,7.74-26.9l71.74-13C712,232,711,250.8,703.75,266.5Z"/><path class="cls-1" d="M783.86,302.42l-73.2,13.23,89-253.06L890,46.26l85.25,221.57-74.36,13.44L883.86,234l-82.21,14.85Zm64.4-168.22-4.73-18.94L839,136.48l-20.09,59.43,48.51-8.77Z"/><path class="cls-1" d="M1197.37,129.9c-13.29,18.3-35.33,29.79-63.8,35.53-8.71,1.87-71.16,12.56-71.16,12.56l.31,74-71.17,12.87-1-236.79,142-25.67c27.88-5,47.66-2.31,60.5,8.86,13.41,9.58,20.76,28.65,20.89,58C1214.09,95.69,1208.65,115.27,1197.37,129.9Zm-57.53-62.49c-4.1-6.76-10.79-9.15-22.41-7l-56.35,10.19.23,54.55,55.48-10c13.36-2.41,20-8.12,23.48-15.34,2-4.56,2.58-9.17,2.55-16.06C1142.79,76.18,1141.89,70.34,1139.84,67.41Z"/><path class="cls-1" d="M336.67,660.32l-73.2,13.23,89-253.06,90.33-16.33,85.25,221.56-74.36,13.44-17.06-47.31-82.21,14.86Zm64.4-168.22-4.73-18.94-4.57,21.22L371.68,553.8,420.19,545Z"/><path class="cls-1" d="M617.75,430.14l.16,36,113.28-20.47.24,57.25L618.15,523.35l.37,86.62-70.88,12.81-1-236.78,190.84-34.49.24,56.95Z"/><path class="cls-1" d="M902.17,378.14,902.94,558l-72,13-.77-179.84-73.19,13.23-.25-56.95,219-39.58.24,56.95Z"/><path class="cls-1" d="M994.63,540.22l-1-236.78L1189.69,268l.24,55.74-126.65,22.89.15,34.47,122-22.05.24,56.35-122,22,.15,35.07,128.1-23.15.23,55.15Z"/><path class="cls-1" d="M1424,342.07c-7.21,13.9-17.63,23.28-28.37,27.62L1450,454.64,1370.73,469l-41-72.67-47.64,8.61.34,80-69.71,12.6-1-236.78,146.1-26.41c30.79-5.56,50.88-.19,62.56,13.59,9.06,10.37,13.48,25.46,13.58,47.64C1434,314.75,1430,330.48,1424,342.07Zm-61.52-42.87c-3.52-6.87-10.5-8-20.66-6.17l-59.55,10.76.21,48.26,61-11c8.72-1.58,16.26-5,18.85-11.21a48.23,48.23,0,0,0,2.55-15.76C1364.82,308.67,1364.21,302.48,1362.45,299.2Z"/><path class="cls-1" d="M943.6,831.52C880.27,843,832,827.1,831.69,765.36L831,611.6l71.17-12.87.64,150.77c.09,20.68,15.53,30.19,42,25.41,25-4.51,51-23.92,51-43.41l-.65-151.06L1066,567.63l.67,158.56C1066.9,781.34,1009.53,819.6,943.6,831.52Z"/><path class="cls-1" d="M1206.82,780.06c-72.62,13.12-103.21-4.14-112.64-34.53-2.36-7.68-3.29-19.81-3.3-24l73.2-13.23c0,3.59,1.49,10.22,3.54,13.15,4.69,8.16,17.48,10,41.59,5.69,27.6-5,36.87-13,36.81-25.25-.06-14.69-12.56-16-41.34-15.93-9.6-.07-28.2.3-33.72.4-50.58.44-79.71-12.9-79.9-58.46-.18-41.06,39.2-77.87,110.37-90.73,64.48-11.65,94.2,4.27,106.54,34.14,3.52,8.36,5.31,18.23,5.33,23.93l-73.2,13.23a24.29,24.29,0,0,0-2.95-10.87c-4.11-8.55-14.59-11.76-36.66-7.77-28.76,5.2-36,12.2-36,22.7.06,14.08,17.8,15.38,52.39,15.12,9-.12,21.51,0,31.1.08,46.22,0,70.41,14.57,70.6,58C1318.83,731.92,1280.6,766.73,1206.82,780.06Z"/><path class="cls-1" d="M1340.06,751.79l-1-236.79,196.07-35.43.23,55.75-126.64,22.89.15,34.47,122-22,.24,56.35-122,22,.14,35.06,128.1-23.15.24,55.15Z"/></g></svg>